<mxfile host="app.diagrams.net" agent="Mozilla/5.0 (Windows NT 10.0; Win64; x64) AppleWebKit/537.36 (KHTML, like Gecko) Chrome/133.0.0.0 Safari/537.36 OPR/118.0.0.0" version="27.0.5">
  <diagram name="Página-1" id="UGADvDvg8MFXdUgGhnul">
    <mxGraphModel dx="3427" dy="5303" grid="1" gridSize="10" guides="1" tooltips="1" connect="1" arrows="1" fold="1" page="1" pageScale="1" pageWidth="827" pageHeight="1169" math="0" shadow="0">
      <root>
        <mxCell id="0" />
        <mxCell id="1" parent="0" />
        <mxCell id="3Kyhh9vB5ekiafbe0aQi-21" value="&lt;font style=&quot;font-size: 17px;&quot;&gt;FALSE&lt;/font&gt;" style="edgeStyle=orthogonalEdgeStyle;rounded=0;orthogonalLoop=1;jettySize=auto;html=1;exitX=0;exitY=1;exitDx=0;exitDy=0;" parent="1" edge="1" target="3Kyhh9vB5ekiafbe0aQi-26">
          <mxGeometry x="-0.8505" relative="1" as="geometry">
            <mxPoint x="460" y="1060" as="targetPoint" />
            <mxPoint x="620" y="680" as="sourcePoint" />
            <Array as="points">
              <mxPoint x="390" y="680" />
              <mxPoint x="390" y="1020" />
              <mxPoint x="850" y="1020" />
            </Array>
            <mxPoint as="offset" />
          </mxGeometry>
        </mxCell>
        <mxCell id="3Kyhh9vB5ekiafbe0aQi-22" value="&lt;font style=&quot;font-size: 18px;&quot;&gt;TRUE&lt;/font&gt;" style="edgeStyle=orthogonalEdgeStyle;rounded=0;orthogonalLoop=1;jettySize=auto;html=1;exitX=1;exitY=1;exitDx=0;exitDy=0;" parent="1" target="1IITMv7wr1Y9vhu1d735-4" edge="1">
          <mxGeometry relative="1" as="geometry">
            <mxPoint x="881.1999999999994" y="788.4800000000002" as="targetPoint" />
            <mxPoint x="769.9999999999998" y="680" as="sourcePoint" />
            <Array as="points">
              <mxPoint x="850" y="680" />
            </Array>
          </mxGeometry>
        </mxCell>
        <mxCell id="3Kyhh9vB5ekiafbe0aQi-19" value="&#xa;&lt;span style=&quot;color: rgb(0, 0, 0); font-family: Helvetica; font-size: 12px; font-style: normal; font-variant-ligatures: normal; font-variant-caps: normal; font-weight: 400; letter-spacing: normal; orphans: 2; text-align: center; text-indent: 0px; text-transform: none; widows: 2; word-spacing: 0px; -webkit-text-stroke-width: 0px; white-space: normal; background-color: rgb(236, 236, 236); text-decoration-thickness: initial; text-decoration-style: initial; text-decoration-color: initial; display: inline !important; float: none;&quot;&gt;CheckHitChance recebe o target_move&lt;/span&gt;&#xa;&#xa;" style="rhombus;whiteSpace=wrap;html=1;" parent="1" vertex="1">
          <mxGeometry x="620" y="620" width="150" height="120" as="geometry" />
        </mxCell>
        <mxCell id="3Kyhh9vB5ekiafbe0aQi-6" style="edgeStyle=orthogonalEdgeStyle;rounded=0;orthogonalLoop=1;jettySize=auto;html=1;entryX=0.5;entryY=0;entryDx=0;entryDy=0;" parent="1" source="3Kyhh9vB5ekiafbe0aQi-2" edge="1">
          <mxGeometry relative="1" as="geometry">
            <mxPoint x="480" y="120" as="targetPoint" />
          </mxGeometry>
        </mxCell>
        <mxCell id="3Kyhh9vB5ekiafbe0aQi-2" value="YourTurn = True" style="rounded=0;whiteSpace=wrap;html=1;" parent="1" vertex="1">
          <mxGeometry x="430" y="20" width="100" height="40" as="geometry" />
        </mxCell>
        <mxCell id="3Kyhh9vB5ekiafbe0aQi-9" value="" style="edgeStyle=orthogonalEdgeStyle;rounded=0;orthogonalLoop=1;jettySize=auto;html=1;" parent="1" edge="1">
          <mxGeometry relative="1" as="geometry">
            <mxPoint x="480" y="200" as="sourcePoint" />
            <mxPoint x="480" y="290" as="targetPoint" />
            <Array as="points">
              <mxPoint x="481" y="200" />
              <mxPoint x="481" y="246" />
              <mxPoint x="480" y="246" />
            </Array>
          </mxGeometry>
        </mxCell>
        <mxCell id="3Kyhh9vB5ekiafbe0aQi-11" value="&#xa;&lt;span style=&quot;color: rgb(0, 0, 0); font-family: Helvetica; font-size: 12px; font-style: normal; font-variant-ligatures: normal; font-variant-caps: normal; font-weight: 400; letter-spacing: normal; orphans: 2; text-align: center; text-indent: 0px; text-transform: none; widows: 2; word-spacing: 0px; -webkit-text-stroke-width: 0px; white-space: normal; background-color: rgb(236, 236, 236); text-decoration-thickness: initial; text-decoration-style: initial; text-decoration-color: initial; display: inline !important; float: none;&quot;&gt;player escolhe o move e ele é armazenado na variavel player_move&lt;/span&gt;&#xa;&#xa;" style="shape=parallelogram;perimeter=parallelogramPerimeter;whiteSpace=wrap;html=1;fixedSize=1;" parent="1" vertex="1">
          <mxGeometry x="380" y="120" width="205" height="100" as="geometry" />
        </mxCell>
        <mxCell id="3Kyhh9vB5ekiafbe0aQi-16" value="&lt;font style=&quot;font-size: 17px;&quot;&gt;TRUE&lt;/font&gt;" style="edgeStyle=orthogonalEdgeStyle;rounded=0;orthogonalLoop=1;jettySize=auto;html=1;exitX=0;exitY=1;exitDx=0;exitDy=0;entryX=0.5;entryY=0;entryDx=0;entryDy=0;" parent="1" source="3Kyhh9vB5ekiafbe0aQi-13" target="3Kyhh9vB5ekiafbe0aQi-36" edge="1">
          <mxGeometry relative="1" as="geometry">
            <mxPoint x="360" y="600" as="targetPoint" />
          </mxGeometry>
        </mxCell>
        <mxCell id="3Kyhh9vB5ekiafbe0aQi-17" value="&lt;font style=&quot;font-size: 18px;&quot;&gt;FALSE&lt;/font&gt;" style="edgeStyle=orthogonalEdgeStyle;rounded=0;orthogonalLoop=1;jettySize=auto;html=1;exitX=1;exitY=1;exitDx=0;exitDy=0;entryX=0.5;entryY=0;entryDx=0;entryDy=0;" parent="1" source="3Kyhh9vB5ekiafbe0aQi-13" target="3Kyhh9vB5ekiafbe0aQi-19" edge="1">
          <mxGeometry relative="1" as="geometry">
            <mxPoint x="690" y="620" as="targetPoint" />
          </mxGeometry>
        </mxCell>
        <mxCell id="3Kyhh9vB5ekiafbe0aQi-13" value="WhoAttackFirst?" style="rhombus;whiteSpace=wrap;html=1;" parent="1" vertex="1">
          <mxGeometry x="405" y="420" width="150" height="120" as="geometry" />
        </mxCell>
        <mxCell id="3Kyhh9vB5ekiafbe0aQi-15" style="edgeStyle=orthogonalEdgeStyle;rounded=0;orthogonalLoop=1;jettySize=auto;html=1;exitX=0.5;exitY=1;exitDx=0;exitDy=0;entryX=0.5;entryY=0;entryDx=0;entryDy=0;" parent="1" source="3Kyhh9vB5ekiafbe0aQi-14" target="3Kyhh9vB5ekiafbe0aQi-13" edge="1">
          <mxGeometry relative="1" as="geometry" />
        </mxCell>
        <mxCell id="3Kyhh9vB5ekiafbe0aQi-14" value="&#xa;&lt;span style=&quot;color: rgb(0, 0, 0); font-family: Helvetica; font-size: 12px; font-style: normal; font-variant-ligatures: normal; font-variant-caps: normal; font-weight: 400; letter-spacing: normal; orphans: 2; text-align: center; text-indent: 0px; text-transform: none; widows: 2; word-spacing: 0px; -webkit-text-stroke-width: 0px; white-space: normal; background-color: rgb(236, 236, 236); text-decoration-thickness: initial; text-decoration-style: initial; text-decoration-color: initial; display: inline !important; float: none;&quot;&gt;player_move fica salvo dentro do metodo fight&lt;/span&gt;&#xa;&#xa;" style="rounded=0;whiteSpace=wrap;html=1;" parent="1" vertex="1">
          <mxGeometry x="420" y="290" width="120" height="60" as="geometry" />
        </mxCell>
        <mxCell id="3Kyhh9vB5ekiafbe0aQi-27" value="" style="edgeStyle=orthogonalEdgeStyle;rounded=0;orthogonalLoop=1;jettySize=auto;html=1;" parent="1" source="3Kyhh9vB5ekiafbe0aQi-24" target="3Kyhh9vB5ekiafbe0aQi-26" edge="1">
          <mxGeometry relative="1" as="geometry" />
        </mxCell>
        <mxCell id="3Kyhh9vB5ekiafbe0aQi-24" value="Automaticamente player move é acionado" style="rounded=0;whiteSpace=wrap;html=1;" parent="1" vertex="1">
          <mxGeometry x="790" y="920" width="120" height="70" as="geometry" />
        </mxCell>
        <mxCell id="1IITMv7wr1Y9vhu1d735-8" value="" style="edgeStyle=orthogonalEdgeStyle;rounded=0;orthogonalLoop=1;jettySize=auto;html=1;entryX=0.5;entryY=0;entryDx=0;entryDy=0;" edge="1" parent="1" source="3Kyhh9vB5ekiafbe0aQi-26" target="1IITMv7wr1Y9vhu1d735-7">
          <mxGeometry relative="1" as="geometry">
            <Array as="points">
              <mxPoint x="1070" y="1155" />
            </Array>
          </mxGeometry>
        </mxCell>
        <mxCell id="1IITMv7wr1Y9vhu1d735-14" value="&lt;font style=&quot;font-size: 15px;&quot;&gt;FALSE&lt;/font&gt;" style="edgeStyle=orthogonalEdgeStyle;rounded=0;orthogonalLoop=1;jettySize=auto;html=1;" edge="1" parent="1" source="3Kyhh9vB5ekiafbe0aQi-26" target="1IITMv7wr1Y9vhu1d735-13">
          <mxGeometry x="-0.6418" relative="1" as="geometry">
            <mxPoint as="offset" />
          </mxGeometry>
        </mxCell>
        <mxCell id="3Kyhh9vB5ekiafbe0aQi-26" value="CheckHitChance recebe o player_move&lt;div&gt;&lt;br&gt;&lt;/div&gt;" style="rhombus;whiteSpace=wrap;html=1;" parent="1" vertex="1">
          <mxGeometry x="760" y="1060" width="180" height="190" as="geometry" />
        </mxCell>
        <mxCell id="3Kyhh9vB5ekiafbe0aQi-31" value="&lt;font style=&quot;font-size: 13px;&quot;&gt;FALSE&lt;/font&gt;" style="edgeStyle=orthogonalEdgeStyle;rounded=0;orthogonalLoop=1;jettySize=auto;html=1;exitX=0.5;exitY=1;exitDx=0;exitDy=0;" parent="1" source="1IITMv7wr1Y9vhu1d735-7" target="3Kyhh9vB5ekiafbe0aQi-32" edge="1">
          <mxGeometry relative="1" as="geometry">
            <mxPoint x="1070" y="1420" as="targetPoint" />
            <mxPoint x="1070" y="1340" as="sourcePoint" />
          </mxGeometry>
        </mxCell>
        <mxCell id="3Kyhh9vB5ekiafbe0aQi-33" style="edgeStyle=orthogonalEdgeStyle;rounded=0;orthogonalLoop=1;jettySize=auto;html=1;entryX=1;entryY=0.5;entryDx=0;entryDy=0;exitX=0.5;exitY=1;exitDx=0;exitDy=0;" parent="1" source="1IITMv7wr1Y9vhu1d735-2" target="3Kyhh9vB5ekiafbe0aQi-2" edge="1">
          <mxGeometry relative="1" as="geometry">
            <Array as="points">
              <mxPoint x="1070" y="1690" />
              <mxPoint x="1190" y="1690" />
              <mxPoint x="1190" y="40" />
            </Array>
            <mxPoint x="1190" y="1670" as="sourcePoint" />
          </mxGeometry>
        </mxCell>
        <mxCell id="1IITMv7wr1Y9vhu1d735-3" value="" style="edgeStyle=orthogonalEdgeStyle;rounded=0;orthogonalLoop=1;jettySize=auto;html=1;" edge="1" parent="1" source="3Kyhh9vB5ekiafbe0aQi-32" target="1IITMv7wr1Y9vhu1d735-2">
          <mxGeometry relative="1" as="geometry" />
        </mxCell>
        <mxCell id="3Kyhh9vB5ekiafbe0aQi-32" value="Target recebe o move&lt;div&gt;&lt;br&gt;&lt;/div&gt;" style="rounded=0;whiteSpace=wrap;html=1;" parent="1" vertex="1">
          <mxGeometry x="1010" y="1390" width="120" height="60" as="geometry" />
        </mxCell>
        <mxCell id="3Kyhh9vB5ekiafbe0aQi-34" value="&lt;font style=&quot;font-size: 17px;&quot;&gt;FALSE&lt;/font&gt;" style="edgeStyle=orthogonalEdgeStyle;rounded=0;orthogonalLoop=1;jettySize=auto;html=1;exitX=0;exitY=1;exitDx=0;exitDy=0;entryX=0.5;entryY=0;entryDx=0;entryDy=0;" parent="1" source="3Kyhh9vB5ekiafbe0aQi-36" target="3Kyhh9vB5ekiafbe0aQi-48" edge="1">
          <mxGeometry relative="1" as="geometry">
            <mxPoint x="-340" y="840" as="targetPoint" />
            <Array as="points">
              <mxPoint x="-340" y="750" />
            </Array>
          </mxGeometry>
        </mxCell>
        <mxCell id="3Kyhh9vB5ekiafbe0aQi-35" value="&lt;font style=&quot;font-size: 18px;&quot;&gt;TRUE&lt;/font&gt;" style="edgeStyle=orthogonalEdgeStyle;rounded=0;orthogonalLoop=1;jettySize=auto;html=1;exitX=1;exitY=1;exitDx=0;exitDy=0;entryX=0.5;entryY=0;entryDx=0;entryDy=0;" parent="1" source="3Kyhh9vB5ekiafbe0aQi-36" target="3Kyhh9vB5ekiafbe0aQi-38" edge="1">
          <mxGeometry relative="1" as="geometry">
            <mxPoint x="50" y="830" as="targetPoint" />
            <Array as="points">
              <mxPoint x="-167" y="740" />
              <mxPoint x="-50" y="740" />
            </Array>
          </mxGeometry>
        </mxCell>
        <mxCell id="3Kyhh9vB5ekiafbe0aQi-36" value="&lt;br&gt;&lt;span style=&quot;color: rgb(0, 0, 0); font-family: Helvetica; font-size: 12px; font-style: normal; font-variant-ligatures: normal; font-variant-caps: normal; font-weight: 400; letter-spacing: normal; orphans: 2; text-align: center; text-indent: 0px; text-transform: none; widows: 2; word-spacing: 0px; -webkit-text-stroke-width: 0px; white-space: normal; background-color: rgb(236, 236, 236); text-decoration-thickness: initial; text-decoration-style: initial; text-decoration-color: initial; float: none; display: inline !important;&quot;&gt;CheckHitChance recebe o player&lt;/span&gt;&lt;span style=&quot;background-color: light-dark(rgb(236, 236, 236), rgb(34, 34, 34)); color: light-dark(rgb(0, 0, 0), rgb(237, 237, 237));&quot;&gt;_move&lt;/span&gt;&lt;div&gt;&lt;br&gt;&lt;/div&gt;" style="rhombus;whiteSpace=wrap;html=1;" parent="1" vertex="1">
          <mxGeometry x="-280" y="660" width="150" height="120" as="geometry" />
        </mxCell>
        <mxCell id="3Kyhh9vB5ekiafbe0aQi-40" value="TRUE" style="edgeStyle=orthogonalEdgeStyle;rounded=0;orthogonalLoop=1;jettySize=auto;html=1;entryX=0.5;entryY=0;entryDx=0;entryDy=0;" parent="1" source="3Kyhh9vB5ekiafbe0aQi-38" edge="1">
          <mxGeometry relative="1" as="geometry">
            <mxPoint x="80.00000000000045" y="1070" as="targetPoint" />
          </mxGeometry>
        </mxCell>
        <mxCell id="3Kyhh9vB5ekiafbe0aQi-41" value="FALSE" style="edgeStyle=orthogonalEdgeStyle;rounded=0;orthogonalLoop=1;jettySize=auto;html=1;entryX=0.5;entryY=0;entryDx=0;entryDy=0;" parent="1" source="3Kyhh9vB5ekiafbe0aQi-38" target="3Kyhh9vB5ekiafbe0aQi-43" edge="1">
          <mxGeometry relative="1" as="geometry">
            <mxPoint x="-90" y="1020" as="targetPoint" />
          </mxGeometry>
        </mxCell>
        <mxCell id="3Kyhh9vB5ekiafbe0aQi-38" value="Target Escape" style="rounded=0;whiteSpace=wrap;html=1;" parent="1" vertex="1">
          <mxGeometry x="-110" y="950" width="120" height="60" as="geometry" />
        </mxCell>
        <mxCell id="1IITMv7wr1Y9vhu1d735-30" style="edgeStyle=orthogonalEdgeStyle;rounded=0;orthogonalLoop=1;jettySize=auto;html=1;exitX=0.5;exitY=1;exitDx=0;exitDy=0;entryX=1;entryY=0.5;entryDx=0;entryDy=0;" edge="1" parent="1" source="3Kyhh9vB5ekiafbe0aQi-42" target="3Kyhh9vB5ekiafbe0aQi-46">
          <mxGeometry relative="1" as="geometry" />
        </mxCell>
        <mxCell id="3Kyhh9vB5ekiafbe0aQi-42" value="YourTurn precisa ser retornado como FALSE" style="rounded=0;whiteSpace=wrap;html=1;" parent="1" vertex="1">
          <mxGeometry x="20" y="1070" width="120" height="60" as="geometry" />
        </mxCell>
        <mxCell id="3Kyhh9vB5ekiafbe0aQi-47" style="edgeStyle=orthogonalEdgeStyle;rounded=0;orthogonalLoop=1;jettySize=auto;html=1;exitX=0.5;exitY=1;exitDx=0;exitDy=0;entryX=0.5;entryY=0;entryDx=0;entryDy=0;" parent="1" source="3Kyhh9vB5ekiafbe0aQi-43" target="3Kyhh9vB5ekiafbe0aQi-46" edge="1">
          <mxGeometry relative="1" as="geometry" />
        </mxCell>
        <mxCell id="3Kyhh9vB5ekiafbe0aQi-43" value="target recebe o move" style="rounded=0;whiteSpace=wrap;html=1;" parent="1" vertex="1">
          <mxGeometry x="-290" y="1070" width="120" height="60" as="geometry" />
        </mxCell>
        <mxCell id="1IITMv7wr1Y9vhu1d735-31" style="edgeStyle=orthogonalEdgeStyle;rounded=0;orthogonalLoop=1;jettySize=auto;html=1;" edge="1" parent="1" source="3Kyhh9vB5ekiafbe0aQi-46">
          <mxGeometry relative="1" as="geometry">
            <mxPoint x="-670" y="930" as="targetPoint" />
          </mxGeometry>
        </mxCell>
        <mxCell id="3Kyhh9vB5ekiafbe0aQi-46" value="YourTurn precisa ser retornado como FALSE" style="rounded=0;whiteSpace=wrap;html=1;" parent="1" vertex="1">
          <mxGeometry x="-290" y="1180" width="120" height="60" as="geometry" />
        </mxCell>
        <mxCell id="1IITMv7wr1Y9vhu1d735-28" style="edgeStyle=orthogonalEdgeStyle;rounded=0;orthogonalLoop=1;jettySize=auto;html=1;entryX=1;entryY=0.5;entryDx=0;entryDy=0;" edge="1" parent="1" source="3Kyhh9vB5ekiafbe0aQi-48" target="3Kyhh9vB5ekiafbe0aQi-51">
          <mxGeometry relative="1" as="geometry" />
        </mxCell>
        <mxCell id="3Kyhh9vB5ekiafbe0aQi-48" value="YourTurn precisa ser retornado como FALSE" style="rounded=0;whiteSpace=wrap;html=1;" parent="1" vertex="1">
          <mxGeometry x="-400" y="900" width="120" height="60" as="geometry" />
        </mxCell>
        <mxCell id="3Kyhh9vB5ekiafbe0aQi-52" style="edgeStyle=orthogonalEdgeStyle;rounded=0;orthogonalLoop=1;jettySize=auto;html=1;exitX=0.5;exitY=1;exitDx=0;exitDy=0;" parent="1" source="3Kyhh9vB5ekiafbe0aQi-51" edge="1">
          <mxGeometry relative="1" as="geometry">
            <mxPoint x="-995" y="210" as="targetPoint" />
          </mxGeometry>
        </mxCell>
        <mxCell id="3Kyhh9vB5ekiafbe0aQi-51" value="YourTurn = False" style="rounded=0;whiteSpace=wrap;html=1;" parent="1" vertex="1">
          <mxGeometry x="-1055" y="30" width="120" height="60" as="geometry" />
        </mxCell>
        <mxCell id="3Kyhh9vB5ekiafbe0aQi-56" value="&lt;font style=&quot;font-size: 15px;&quot;&gt;FALSE&lt;/font&gt;" style="edgeStyle=orthogonalEdgeStyle;rounded=0;orthogonalLoop=1;jettySize=auto;html=1;" parent="1" source="3Kyhh9vB5ekiafbe0aQi-54" edge="1" target="1IITMv7wr1Y9vhu1d735-27">
          <mxGeometry relative="1" as="geometry">
            <mxPoint x="-1270" y="410" as="targetPoint" />
            <Array as="points">
              <mxPoint x="-1270" y="270" />
              <mxPoint x="-1270" y="360" />
            </Array>
          </mxGeometry>
        </mxCell>
        <mxCell id="1IITMv7wr1Y9vhu1d735-20" value="&lt;font style=&quot;font-size: 15px;&quot;&gt;TRUE&lt;/font&gt;&lt;div&gt;&lt;br&gt;&lt;/div&gt;" style="edgeStyle=orthogonalEdgeStyle;rounded=0;orthogonalLoop=1;jettySize=auto;html=1;" edge="1" parent="1" source="3Kyhh9vB5ekiafbe0aQi-54" target="1IITMv7wr1Y9vhu1d735-19">
          <mxGeometry relative="1" as="geometry" />
        </mxCell>
        <mxCell id="3Kyhh9vB5ekiafbe0aQi-54" value="&lt;span style=&quot;background-color: light-dark(#ffffff, var(--ge-dark-color, #121212));&quot;&gt;&lt;br&gt;&lt;span style=&quot;color: rgb(0, 0, 0); float: none; display: inline !important; background-color: rgb(236, 236, 236);&quot;&gt;CheckHitChance recebe o player&lt;/span&gt;&lt;span style=&quot;color: light-dark(rgb(0, 0, 0), rgb(237, 237, 237));&quot;&gt;_move&lt;/span&gt;&lt;/span&gt;&lt;div&gt;&lt;br&gt;&lt;/div&gt;" style="rhombus;whiteSpace=wrap;html=1;" parent="1" vertex="1">
          <mxGeometry x="-1070" y="210" width="150" height="120" as="geometry" />
        </mxCell>
        <mxCell id="3Kyhh9vB5ekiafbe0aQi-69" style="edgeStyle=orthogonalEdgeStyle;rounded=0;orthogonalLoop=1;jettySize=auto;html=1;exitX=0.5;exitY=1;exitDx=0;exitDy=0;entryX=0;entryY=0.5;entryDx=0;entryDy=0;" parent="1" source="3Kyhh9vB5ekiafbe0aQi-68" target="3Kyhh9vB5ekiafbe0aQi-24" edge="1">
          <mxGeometry relative="1" as="geometry" />
        </mxCell>
        <mxCell id="3Kyhh9vB5ekiafbe0aQi-68" value="player recebe o target_move" style="rounded=0;whiteSpace=wrap;html=1;" parent="1" vertex="1">
          <mxGeometry x="640" y="840" width="120" height="60" as="geometry" />
        </mxCell>
        <mxCell id="1IITMv7wr1Y9vhu1d735-2" value="YourTurn precisa ser retornado como True&lt;div&gt;&lt;br&gt;&lt;/div&gt;" style="whiteSpace=wrap;html=1;rounded=0;" vertex="1" parent="1">
          <mxGeometry x="1010" y="1530" width="120" height="60" as="geometry" />
        </mxCell>
        <mxCell id="1IITMv7wr1Y9vhu1d735-5" value="&lt;font style=&quot;font-size: 13px;&quot;&gt;FALSE&lt;/font&gt;" style="edgeStyle=orthogonalEdgeStyle;rounded=0;orthogonalLoop=1;jettySize=auto;html=1;entryX=0.493;entryY=-0.046;entryDx=0;entryDy=0;entryPerimeter=0;" edge="1" parent="1" source="1IITMv7wr1Y9vhu1d735-4" target="3Kyhh9vB5ekiafbe0aQi-68">
          <mxGeometry relative="1" as="geometry">
            <mxPoint x="670" y="770" as="targetPoint" />
            <Array as="points">
              <mxPoint x="700" y="770" />
              <mxPoint x="700" y="810" />
              <mxPoint x="699" y="810" />
            </Array>
          </mxGeometry>
        </mxCell>
        <mxCell id="1IITMv7wr1Y9vhu1d735-6" value="&lt;font style=&quot;font-size: 13px;&quot;&gt;TRUE&lt;/font&gt;" style="edgeStyle=orthogonalEdgeStyle;rounded=0;orthogonalLoop=1;jettySize=auto;html=1;" edge="1" parent="1" source="1IITMv7wr1Y9vhu1d735-4" target="3Kyhh9vB5ekiafbe0aQi-24">
          <mxGeometry relative="1" as="geometry" />
        </mxCell>
        <mxCell id="1IITMv7wr1Y9vhu1d735-4" value="&lt;font style=&quot;font-size: 9px;&quot;&gt;Player Escape&lt;/font&gt;&lt;div&gt;&lt;br&gt;&lt;/div&gt;" style="rhombus;whiteSpace=wrap;html=1;direction=south;rotation=0;" vertex="1" parent="1">
          <mxGeometry x="809.9999999999995" y="730" width="80" height="80" as="geometry" />
        </mxCell>
        <mxCell id="1IITMv7wr1Y9vhu1d735-10" value="&lt;font style=&quot;font-size: 14px;&quot;&gt;TRUE&lt;/font&gt;" style="edgeStyle=orthogonalEdgeStyle;rounded=0;orthogonalLoop=1;jettySize=auto;html=1;" edge="1" parent="1" source="1IITMv7wr1Y9vhu1d735-7" target="1IITMv7wr1Y9vhu1d735-11">
          <mxGeometry relative="1" as="geometry">
            <mxPoint x="890" y="1380" as="targetPoint" />
            <Array as="points">
              <mxPoint x="890" y="1265" />
              <mxPoint x="890" y="1370" />
            </Array>
          </mxGeometry>
        </mxCell>
        <mxCell id="1IITMv7wr1Y9vhu1d735-7" value="Target Escape&lt;div&gt;&lt;br&gt;&lt;/div&gt;" style="rhombus;whiteSpace=wrap;html=1;" vertex="1" parent="1">
          <mxGeometry x="992.5" y="1190" width="155" height="150" as="geometry" />
        </mxCell>
        <mxCell id="1IITMv7wr1Y9vhu1d735-15" style="edgeStyle=orthogonalEdgeStyle;rounded=0;orthogonalLoop=1;jettySize=auto;html=1;" edge="1" parent="1" source="1IITMv7wr1Y9vhu1d735-11">
          <mxGeometry relative="1" as="geometry">
            <mxPoint x="1070" y="1690" as="targetPoint" />
            <Array as="points">
              <mxPoint x="890" y="1690" />
            </Array>
          </mxGeometry>
        </mxCell>
        <mxCell id="1IITMv7wr1Y9vhu1d735-11" value="YourTurn precisa ser retornado como True&lt;div&gt;&lt;br&gt;&lt;/div&gt;" style="rounded=0;whiteSpace=wrap;html=1;" vertex="1" parent="1">
          <mxGeometry x="830" y="1350" width="120" height="60" as="geometry" />
        </mxCell>
        <mxCell id="1IITMv7wr1Y9vhu1d735-16" style="edgeStyle=orthogonalEdgeStyle;rounded=0;orthogonalLoop=1;jettySize=auto;html=1;" edge="1" parent="1" source="1IITMv7wr1Y9vhu1d735-13">
          <mxGeometry relative="1" as="geometry">
            <mxPoint x="890" y="1690" as="targetPoint" />
            <Array as="points">
              <mxPoint x="600" y="1690" />
            </Array>
          </mxGeometry>
        </mxCell>
        <mxCell id="1IITMv7wr1Y9vhu1d735-13" value="YourTurn precisa ser retornado como TRUE" style="whiteSpace=wrap;html=1;" vertex="1" parent="1">
          <mxGeometry x="540" y="1330" width="120" height="60" as="geometry" />
        </mxCell>
        <mxCell id="1IITMv7wr1Y9vhu1d735-22" value="&lt;font style=&quot;font-size: 15px;&quot;&gt;FALSE&lt;/font&gt;&lt;div&gt;&lt;br&gt;&lt;/div&gt;" style="edgeStyle=orthogonalEdgeStyle;rounded=0;orthogonalLoop=1;jettySize=auto;html=1;" edge="1" parent="1" source="1IITMv7wr1Y9vhu1d735-19" target="1IITMv7wr1Y9vhu1d735-21">
          <mxGeometry x="0.0566" relative="1" as="geometry">
            <mxPoint as="offset" />
          </mxGeometry>
        </mxCell>
        <mxCell id="1IITMv7wr1Y9vhu1d735-24" value="&lt;font style=&quot;font-size: 15px;&quot;&gt;TRUE&lt;/font&gt;&lt;div&gt;&lt;br&gt;&lt;/div&gt;" style="edgeStyle=orthogonalEdgeStyle;rounded=0;orthogonalLoop=1;jettySize=auto;html=1;" edge="1" parent="1" source="1IITMv7wr1Y9vhu1d735-19" target="1IITMv7wr1Y9vhu1d735-23">
          <mxGeometry relative="1" as="geometry" />
        </mxCell>
        <mxCell id="1IITMv7wr1Y9vhu1d735-19" value="Target Escape&lt;div&gt;&lt;br&gt;&lt;/div&gt;" style="rhombus;whiteSpace=wrap;html=1;" vertex="1" parent="1">
          <mxGeometry x="-890" y="390" width="150" height="120" as="geometry" />
        </mxCell>
        <mxCell id="1IITMv7wr1Y9vhu1d735-26" value="" style="edgeStyle=orthogonalEdgeStyle;rounded=0;orthogonalLoop=1;jettySize=auto;html=1;" edge="1" parent="1" source="1IITMv7wr1Y9vhu1d735-21" target="1IITMv7wr1Y9vhu1d735-25">
          <mxGeometry relative="1" as="geometry" />
        </mxCell>
        <mxCell id="1IITMv7wr1Y9vhu1d735-21" value="Target recebe o player_move" style="whiteSpace=wrap;html=1;" vertex="1" parent="1">
          <mxGeometry x="-1110" y="555" width="120" height="60" as="geometry" />
        </mxCell>
        <mxCell id="1IITMv7wr1Y9vhu1d735-34" style="edgeStyle=orthogonalEdgeStyle;rounded=0;orthogonalLoop=1;jettySize=auto;html=1;entryX=0;entryY=0.5;entryDx=0;entryDy=0;" edge="1" parent="1" source="1IITMv7wr1Y9vhu1d735-23" target="3Kyhh9vB5ekiafbe0aQi-2">
          <mxGeometry relative="1" as="geometry">
            <mxPoint x="-430" y="70" as="targetPoint" />
            <Array as="points">
              <mxPoint x="-350" y="725" />
              <mxPoint x="-350" y="40" />
            </Array>
          </mxGeometry>
        </mxCell>
        <mxCell id="1IITMv7wr1Y9vhu1d735-23" value="YourTurn precisa ser retornado como TRUE" style="whiteSpace=wrap;html=1;" vertex="1" parent="1">
          <mxGeometry x="-875" y="695" width="120" height="60" as="geometry" />
        </mxCell>
        <mxCell id="1IITMv7wr1Y9vhu1d735-33" style="edgeStyle=orthogonalEdgeStyle;rounded=0;orthogonalLoop=1;jettySize=auto;html=1;" edge="1" parent="1" source="1IITMv7wr1Y9vhu1d735-25" target="1IITMv7wr1Y9vhu1d735-23">
          <mxGeometry relative="1" as="geometry" />
        </mxCell>
        <mxCell id="1IITMv7wr1Y9vhu1d735-25" value="Yourturn precisa ser retornado como TRUE&lt;div&gt;&lt;br&gt;&lt;/div&gt;" style="whiteSpace=wrap;html=1;" vertex="1" parent="1">
          <mxGeometry x="-1110" y="695" width="120" height="60" as="geometry" />
        </mxCell>
        <mxCell id="1IITMv7wr1Y9vhu1d735-32" style="edgeStyle=orthogonalEdgeStyle;rounded=0;orthogonalLoop=1;jettySize=auto;html=1;exitX=0.5;exitY=1;exitDx=0;exitDy=0;entryX=0;entryY=0.5;entryDx=0;entryDy=0;" edge="1" parent="1" source="1IITMv7wr1Y9vhu1d735-27" target="1IITMv7wr1Y9vhu1d735-25">
          <mxGeometry relative="1" as="geometry">
            <mxPoint x="-1269.7142857142856" y="720" as="targetPoint" />
          </mxGeometry>
        </mxCell>
        <mxCell id="1IITMv7wr1Y9vhu1d735-27" value="YourTurn deve ser retornado como TRUE&lt;div&gt;&lt;br&gt;&lt;/div&gt;" style="rounded=0;whiteSpace=wrap;html=1;" vertex="1" parent="1">
          <mxGeometry x="-1330" y="380" width="120" height="60" as="geometry" />
        </mxCell>
      </root>
    </mxGraphModel>
  </diagram>
</mxfile>
